<?xml version="1.0" encoding="utf-8"?>
<svg version="1.1" height="106" width="106" xmlns="http://www.w3.org/2000/svg">
  <g id="logo" transform="translate(53, 53)">
    <path id="r" transform="translate(0.5, 0.5)" stroke="black" stroke-width="1" stroke-linejoin="round" d="     M -9,-15 H 4 C 12,-15 12,-7 4,-7 H -9 Z     M -40,22 H 0 V 11 H -9 V 3 H 1 C 12,3 6,22 15,22 H 40     V 3 H 34 V 5 C 34,13 25,12 24,7 C 23,2 19,-2 18,-2 C 33,-10 24,-26 12,-26 H -35     V -15 H -25 V 11 H -40 Z"/>
    <g id="gear" mask="url(#holes)">
      <g id="cogs"/>
      <g id="mounts"/>
    </g>
    <mask id="holes">
      <rect x="-60" y="-60" width="120" height="120" fill="white"/>
      <circle id="hole" cy="-40" r="3"/>
      <circle cy="-40" r="3" transform="matrix(0.3090169943749474, 0.9510565162951535, -0.9510565162951535, 0.3090169943749474, 0, 0)"/>
      <circle cy="-40" r="3" transform="matrix(-0.8090169943749475, 0.5877852522924731, -0.5877852522924731, -0.8090169943749475, 0, 0)"/>
      <circle cy="-40" r="3" transform="matrix(-0.8090169943749475, -0.5877852522924731, 0.5877852522924731, -0.8090169943749475, 0, 0)"/>
      <circle cy="-40" r="3" transform="matrix(0.3090169943749474, -0.9510565162951535, 0.9510565162951535, 0.3090169943749474, 0, 0)"/>
    </mask>
  </g>
</svg>